<svg xmlns="http://www.w3.org/2000/svg" xmlns:xlink="http://www.w3.org/1999/xlink" viewBox="0 0 891.11 698.05"><defs><style>.cls-1{isolation:isolate;}.cls-2,.cls-25{fill:#97cbff;}.cls-2{opacity:0.59;}.cls-3{fill:#fff;}.cls-4{fill:#d2ebff;}.cls-5{fill:#007ede;opacity:0.23;}.cls-11,.cls-5{mix-blend-mode:multiply;}.cls-22,.cls-24,.cls-6,.cls-7{fill:none;}.cls-22,.cls-6,.cls-7{stroke:#97cbff;stroke-miterlimit:10;}.cls-22,.cls-6{stroke-width:2.36px;}.cls-8{fill:url(#linear-gradient);}.cls-9{fill:#4a70d6;}.cls-10{fill:#ff619a;}.cls-11{fill:#a8c4e5;opacity:0.4;}.cls-12{fill:#ffe46e;}.cls-13{fill:#dea749;}.cls-14{fill:#ce9138;}.cls-15{fill:#ef487c;}.cls-16{fill:#dd3672;}.cls-17{fill:#50dec6;}.cls-18{fill:#45bfab;}.cls-19{fill:#35aa93;}.cls-20{fill:#b9d8ed;}.cls-21{fill:#dbefff;}.cls-22,.cls-24{stroke-linecap:round;}.cls-23{fill:#1d3570;}.cls-24{stroke:#4a70d6;stroke-linejoin:round;stroke-width:2px;}.cls-26{fill:#ff5c97;}</style><linearGradient id="linear-gradient" x1="-55.4" y1="515.12" x2="432.63" y2="515.12" gradientTransform="matrix(-1, 0, 0, 1, 557.04, 0)" gradientUnits="userSpaceOnUse"><stop offset="0" stop-color="#e0eefc"/><stop offset="0.39" stop-color="#b2d4f7"/><stop offset="1" stop-color="#97cbff"/></linearGradient></defs><g class="cls-1"><g id="圖層_2" data-name="圖層 2"><g id="圖層_1-2" data-name="圖層 1"><path class="cls-2" d="M891.11,680.67,864.3,696.15l-84.64-48.86L821.71,623l42-24.28,27.35,15.79v-1.89l-7.2-4.16L865.4,597.78l25.71-14.84v-1.89l-27.35,15.79-68.12-39.33L779.12,548l34.93-20.16,49.17-28.39,27.89,16.1v-1.89l-17.8-10.28-8.45-4.88,26.25-15.15v-1.9l-27.89,16.11-68-39.25L779,448.89l.14-.08h0l84-48.47,28,16.18v-1.9l-13.05-7.53-13.33-7.7.14-.08h0l26.24-15.15V381.8l-28.29,16.33-82.64-47.71-1.59-.92,26.3-15.18,57.8-33.38,28.42,16.41v-3L864.87,299.2l26.24-15.15v-1.89l-27.88,16.09-84.64-48.86,46.81-27,37.29-21.53,28.42,16.41v-1.89l-26.78-15.46,26.78-15.47v-1.89l-28.42,16.41-42.76-24.69-41.88-24.18,45.84-26.46,38.26-22.09,29,16.72v-1.89l-27.32-15.78h0L777.51,50.76h0L689.6,0,602.22,50.45l.46.27L517.62,99.83l0,0L430.2,150.25h0l-85.74,49.5h0l-85.74,49.5h0l-84.1,48.56L88.75,248.23l-.41-.24L1,298.44l85,49.09L0,397.17,86.28,447,.54,496.49,88.05,547l.41.24,85.86,49.57.13.07,86.15,49.74.39.23,85.89,49.59.41.23L433,647.18l85.87,49.58.41.23,85.84-49.56.44.26.17.09,86.11,49.72.41.23L778,648.23l85.87,49.58.41.24,26.81-15.48Zm-60-199.79,30.46,17.59L821.2,521.79,777.48,547l-71.22-41.12-13-7.52.14-.07h0l84-48.47ZM603.83,547.66l-84,48.48-84.23-48.63L483.34,520l36.39-21L604,547.58l-.13.08Zm171.48-99-84,48.47L607.11,448.5l32.7-18.88L691.21,400,758,438.53l17.4,10.05-.13.08ZM348.82,398.38,414,360.72l18.88-10.9,84.63,48.87-43.63,25.19-40.47,23.37Zm83,49.81-49.22,28.42-34.88,20.14-84.63-48.87,15.07-8.7,69-39.85Zm171.48-99L562.08,373l-42.89,24.75-84.64-48.86,69.84-40.32,14.26-8.24Zm-83-49.81,64.56-37.28,19.54-11.28L687.88,299l1.15.67-37.48,21.64-46.62,26.91ZM472.57,426.56l46.62-26.92,84.64,48.86-63.46,36.64-20.64,11.92-84.64-48.87Zm48.26-27.87,44.65-25.78,39.45-22.78,64.07,37L689.57,399l-51.7,29.85-32.4,18.71Zm85.74-49.5,42-24.28,42-24.28,84.64,48.87-40.07,23.14-44,25.41ZM606,249.87l17.74-10.24,66.36-38.31,84.64,48.87-47.19,27.25-36.91,21.3Zm0-100.11,84.1-48.55,40.68,23.48,44,25.38-49.61,28.65-34.49,19.91Zm82.46,50.61L619.88,240l-15.49,8.94-13-7.5-71.65-41.37,40.87-23.6,43.23-25Zm-85.73,49.5-42,24.28-42.06,24.28L434,249.56l40.33-23.28L518.12,201ZM517,299.38l-41.54,24-42.56,24.57-84.64-48.87,42.05-24.27,42.05-24.28Zm-85.74,49.5-84.1,48.55-84.64-48.86,40.18-23.2L346.64,300Zm-85.74,49.5-72.25,41.71-11.85,6.84L176.8,398.07l45.8-26.44,38.3-22.12ZM258.3,447.3l-41.38,23.89-42.73,24.66L89.56,447,140,417.84l33.62-19.41ZM210,477.1l50-28.86,84.64,48.87-45.85,26.47-38.25,22.08L175.83,496.8Zm90.63,47.3,45.63-26.34,84.64,48.86-65.21,37.65-18.89,10.91-84.64-48.87Zm48.77-26.71,82.44-47.59,1.66-1L518.09,498l-47.41,27.38L434,546.56Zm172,.31L570,469.91l35.45-20.46,65.63,37.89,18.6,10.74-.13.08h0l-84,48.48Zm86.28,49.82,84-48.48L772,545.74l3.86,2.23-43.6,25.17-40.5,23.39L607.51,547.9ZM861.18,399.08l-.14.08h0l-84,48.47-73.2-42.26-11-6.37,56.46-32.6L777,350.45ZM861.05,300l-47.2,27.25L777,348.55l-66.19-38.21-18.45-10.65L738.54,273l37.87-21.86ZM825.17,179.17l35.88,20.72-44.5,25.69L777,248.44l-84.64-48.86,50.57-29.2L776.41,151Zm35.34-78.6L821,123.38l-44.6,25.75L734.55,125l-42.78-24.7,39.38-22.73L775.87,51.7ZM689.6,1.89l84.63,48.87L730.6,76,690.13,99.31,605.5,50.45Zm-86.74,50L687.5,100.7l-84.1,48.56-84.64-48.87Zm-85.28,49.85,84.64,48.87-43.31,25-40.79,23.55L475.8,174.68l-42.32-24.43Zm-85.74,49.5,37.09,21.42,47.55,27.45-76.55,44.2-7.55,4.36-34.54-20-50.1-28.92ZM346.1,200.7l84.64,48.86-67.69,39.08-16.41,9.48L262,249.25Zm-85.74,49.5L345,299.07l-37.83,21.84L260.9,347.62l-84.64-48.87Zm-1.1,98.37-23.73,13.7-60.37,34.85L90.52,348.26,161,307.59l13.66-7.89Zm-255-50.13,84.1-48.55L173,298.75l-61.65,35.6-22.45,13Zm-1,98.73,84.1-48.55L172,397.48l-26.16,15.1L87.92,446Zm.54,99.32,84.1-48.56,84.64,48.87-84.1,48.55ZM90.1,546.3l54.76-31.62,29.33-16.94,84.64,48.87L251,551.16l-76.23,44Zm86.27,49.81,44-25.41,40.08-23.14,84.64,48.86-74.75,43.16L261,645Zm170.92,98.68-84.64-48.87,84.1-48.55,84.64,48.87Zm1.1-98.37,58-33.47,26.13-15.08,84.64,48.86-28.61,16.52-55.49,32ZM519.31,695.1l-84.64-48.86L476.72,622l42-24.28,84.64,48.87Zm2.46-97.7,84.1-48.56,59.7,34.47,24.53,14.16L643,624.7,606,646Zm170.51,98.44L607.64,647l47.16-27.23,36.94-21.33,80.06,46.22,4.58,2.65ZM706.37,605l-13-7.5L737.55,572l39.93-23.05,60.37,34.85,24.27,14L821.92,621,778,646.34Z"/><polygon class="cls-3" points="611.58 536.29 368.88 425.67 367.72 107.77 611.83 249.14 611.58 536.29"/><polygon class="cls-3" points="367.72 331.41 124.41 469.86 124.05 247.31 367.72 107.77 367.72 331.41"/><path class="cls-4" d="M167.84,387.9l133.77-77.23c4.46-2.57,8.11-9.55,8.11-15.5V168.59c0-6-3.65-8.71-8.11-6.13L167.84,239.69c-4.46,2.58-8.11,9.56-8.11,15.51V381.77C159.73,387.72,163.38,390.48,167.84,387.9Z"/><path class="cls-5" d="M320.3,402.22,597.49,560.39c7.51,4.29,6.6,11.91-2,17L426.86,675.83c-8.62,5-21.82,5.65-29.33,1.36L120.34,519c-7.51-4.28-6.6-11.91,2-16.95L291,403.59C299.6,398.55,312.79,397.94,320.3,402.22Z"/><line class="cls-6" x1="367.72" y1="347.19" x2="367.72" y2="107.77"/><line class="cls-7" x1="403.01" y1="166.28" x2="559.3" y2="256.51"/><polygon class="cls-7" points="434.66 218.51 403.4 200.46 403.01 166.28 434.27 184.33 434.66 218.51"/><polygon class="cls-7" points="465.92 236.56 434.66 218.51 434.27 184.33 465.52 202.37 465.92 236.56"/><polygon class="cls-7" points="497.17 254.6 465.92 236.56 465.52 202.37 496.78 220.42 497.17 254.6"/><polygon class="cls-7" points="528.43 272.65 497.17 254.6 496.78 220.42 528.04 238.47 528.43 272.65"/><polygon class="cls-7" points="559.69 290.69 528.43 272.65 528.04 238.47 559.3 256.51 559.69 290.69"/><polygon class="cls-7" points="435.05 252.69 403.79 234.64 403.4 200.46 434.66 218.51 435.05 252.69"/><polygon class="cls-7" points="466.31 270.74 435.05 252.69 434.66 218.51 465.92 236.56 466.31 270.74"/><polygon class="cls-7" points="497.56 288.78 466.31 270.74 465.92 236.56 497.17 254.6 497.56 288.78"/><polygon class="cls-7" points="560.08 324.88 528.82 306.83 528.43 272.65 559.69 290.69 560.08 324.88"/><polygon class="cls-7" points="435.44 286.87 404.18 268.82 403.79 234.64 435.05 252.69 435.44 286.87"/><polygon class="cls-7" points="497.95 322.96 466.69 304.92 466.31 270.74 497.56 288.78 497.95 322.96"/><polygon class="cls-7" points="529.21 341.01 497.95 322.96 497.56 288.78 528.82 306.83 529.21 341.01"/><polygon class="cls-7" points="560.47 359.06 529.21 341.01 528.82 306.83 560.08 324.88 560.47 359.06"/><polygon class="cls-7" points="435.83 321.05 404.57 303.01 404.18 268.82 435.44 286.87 435.83 321.05"/><polygon class="cls-7" points="467.08 339.1 435.83 321.05 435.44 286.87 466.69 304.92 467.08 339.1"/><polygon class="cls-7" points="498.34 357.15 467.08 339.1 466.69 304.92 497.95 322.96 498.34 357.15"/><polygon class="cls-7" points="529.6 375.19 498.34 357.15 497.95 322.96 529.21 341.01 529.6 375.19"/><polygon class="cls-7" points="560.86 393.24 529.6 375.19 529.21 341.01 560.47 359.06 560.86 393.24"/><path class="cls-8" d="M139.4,473.3,300.84,379c8.62-5,21.82-5.65,29.33-1.36L595.61,529.1l5-4.31,10.87-.55.81,17.36c.89,3.75-1.47,8-6.92,11.15L436.73,651.24c-8.62,5-21.82,5.65-29.33,1.37L130.21,494.44c-3.23-1.85-4.9-4.31-5.06-6.92h0v-.05a.71.71,0,0,1,0-.14l-.72-17.46Z"/><path class="cls-3" d="M329.22,358.15,606.41,516.32c7.51,4.29,6.6,11.91-2,16.95L435.78,631.76c-8.62,5-21.82,5.65-29.33,1.36L129.26,475c-7.51-4.28-6.6-11.91,2-16.95L299.9,359.52C308.52,354.48,321.71,353.87,329.22,358.15Z"/><path class="cls-9" d="M180.85,469.42l49.25,28.1c2.37,1.35,2.08,3.76-.64,5.35h0c-2.73,1.6-6.9,1.79-9.27.44L170.94,475.2c-2.37-1.35-2.09-3.76.64-5.35h0C174.3,468.26,178.47,468.06,180.85,469.42Z"/><path class="cls-9" d="M310.55,373.33l47.14,26.9c3,1.69,2.6,4.68-.79,6.66h0c-3.39,2-8.58,2.23-11.53.54l-47.15-26.9c-3-1.68-2.59-4.68.8-6.66h0C302.41,371.89,307.6,371.65,310.55,373.33Z"/><path class="cls-9" d="M323.19,525.9l123.49,70.46c2.37,1.35,2.08,3.77-.64,5.36h0c-2.73,1.59-6.9,1.78-9.27.43L313.28,531.69c-2.37-1.36-2.08-3.77.64-5.36h0C316.65,524.74,320.82,524.54,323.19,525.9Z"/><path class="cls-9" d="M439.55,545.76l41,23.4c3.59,2.05,3.15,5.7-1,8.1h0c-4.12,2.41-10.43,2.71-14,.66l-41-23.41c-3.59-2-3.15-5.69,1-8.1h0C429.65,544,436,543.71,439.55,545.76Z"/><path class="cls-9" d="M370.2,506.18l41,23.41c3.59,2,3.16,5.69-1,8.1h0c-4.13,2.41-10.44,2.7-14,.65l-41-23.4c-3.59-2.05-3.16-5.7,1-8.11h0C360.3,504.43,366.61,504.13,370.2,506.18Z"/><path class="cls-9" d="M300.84,466.61l41,23.4c3.59,2.05,3.15,5.7-1,8.1h0c-4.12,2.41-10.43,2.71-14,.66l-41-23.41c-3.59-2.05-3.15-5.69,1-8.1h0C290.94,464.85,297.25,464.56,300.84,466.61Z"/><path class="cls-9" d="M231.49,427l41,23.41c3.59,2.05,3.16,5.69-1,8.1h0c-4.12,2.41-10.43,2.7-14,.65l-41-23.4c-3.59-2.05-3.16-5.7,1-8.11h0C221.59,425.28,227.9,425,231.49,427Z"/><ellipse class="cls-10" cx="533.93" cy="514.72" rx="27.71" ry="16"/><path class="cls-11" d="M264.24,416.28l182,105.06c3.62,2.09,9.95,1.83,14.14-.59l41.77-24.12c4.19-2.41,4.64-6.07,1-8.16l-182-105.06c-3.63-2.1-10-1.83-14.15.58l-41.77,24.12C261.07,410.53,260.62,414.18,264.24,416.28Z"/><path class="cls-9" d="M264.24,402.86l182,105.06c3.62,2.09,9.95,1.83,14.14-.59l41.77-24.12c4.19-2.41,4.64-6.07,1-8.16L321.18,370c-3.63-2.1-10-1.84-14.15.58l-41.77,24.12C261.07,397.11,260.62,400.76,264.24,402.86Z"/><polygon class="cls-12" points="313.3 341.2 277.97 320.73 313.21 300.38 348.56 320.8 313.3 341.2"/><polygon class="cls-13" points="313.33 416.25 277.97 395.84 277.97 320.73 313.33 341.15 313.33 416.25"/><polygon class="cls-14" points="313.19 416.25 349.3 395.84 349.3 320.73 313.19 341.15 313.19 416.25"/><polygon class="cls-10" points="360.53 322.93 324.77 302.61 360.31 282.23 395.66 302.64 360.53 322.93"/><polygon class="cls-15" points="325.06 302.58 325.06 347.27 325.06 422.38 360.42 442.79 360.42 322.99 325.06 302.58"/><polygon class="cls-16" points="360.54 322.99 360.51 442.79 396.02 422.38 396.02 302.58 360.54 322.99"/><polygon class="cls-17" points="405.47 395.79 370.35 375.35 405.48 355.06 440.84 375.47 405.47 395.79"/><polygon class="cls-18" points="405.57 470.93 370.53 450.51 370.53 375.41 405.57 395.82 405.57 470.93"/><polygon class="cls-19" points="405.57 470.93 440.61 450.51 440.61 375.41 405.57 395.82 405.57 470.93"/><polygon class="cls-3" points="452.91 452.37 417.56 431.96 452.69 411.67 488.05 432.09 452.91 452.37"/><polygon class="cls-20" points="452.29 500.11 488.4 478.47 488.4 432.04 452.29 452.46 452.29 500.11"/><polygon class="cls-21" points="452.96 500.03 452.96 452.37 417.61 431.96 417.61 479.61 452.96 500.03"/><path class="cls-16" d="M551.23,354.2l-14.64,8.52s5.77,3.36,6.17,3.36,15-6.35,15-6.35Z"/><polyline class="cls-6" points="611.83 249.14 366.35 107.42 124.05 247.31"/><line class="cls-6" x1="611.57" y1="536.29" x2="611.57" y2="248.67"/><line class="cls-22" x1="123.79" y1="247.31" x2="123.79" y2="466.05"/><circle class="cls-23" cx="611.57" cy="248.67" r="8.45"/><circle class="cls-23" cx="367.68" cy="107.77" r="8.45" transform="translate(65.82 343.73) rotate(-54.35)"/><path class="cls-23" d="M115.6,248.67a8.45,8.45,0,1,0,8.45-8.45A8.45,8.45,0,0,0,115.6,248.67Z"/><path class="cls-15" d="M542.52,397.55l.6,3.25L561.73,444c4.34,11.5,15.42,17.31,19.64,10.3l17.17-28.46-.07,0c2.43-4,3.81-9.35,3.81-15.82,0-20.54-13.91-44.62-31.08-53.78s-31.08.07-31.08,20.62C540.12,383.24,540.09,391,542.52,397.55Zm14-13.17c0-9.74,14.73-9.77,14.73-9.77s9.69,16.25,9.69,26c0,4,3.92,6.64,2,8.59-2.69,2.78-6.94,3.23-11.71.68C563.06,405.53,556.47,394.12,556.47,384.38Z"/><path class="cls-16" d="M578.65,456.91l-11.88,6.84,3.61-21.93,19.79-3.77L581.3,454.2A7,7,0,0,1,578.65,456.91Z"/><path class="cls-10" d="M531.19,404.12l-.07,0L549,451.41c4.35,11.5,15.43,17.31,19.65,10.3l17.16-28.46-.06,0c2.43-4,3.81-9.35,3.81-15.82,0-20.54-13.91-44.62-31.08-53.78s-31.09.07-31.09,20.61A58.53,58.53,0,0,0,531.19,404.12Zm12.54-12.28c0-9.74,6.6-14.12,14.74-9.78s14.73,15.76,14.73,25.5-6.59,14.11-14.73,9.77S543.73,401.57,543.73,391.84Z"/><polyline class="cls-24" points="547.18 349.08 511.54 296.85 481.15 286.87 465.98 242 443.68 249.14 413.65 197.57"/><polyline class="cls-24" points="420.59 199.27 412.3 195.44 411.95 203.73"/><path class="cls-25" d="M570.73,264.88l9.76,5.63c.65.38,1.19,0,1.19-.89h0a2.87,2.87,0,0,0-1.19-2.27l-9.76-5.63c-.65-.38-1.18,0-1.18.9h0A2.85,2.85,0,0,0,570.73,264.88Z"/><path class="cls-25" d="M568.32,295.56l9.76,5.63c.65.38,1.19,0,1.19-.89h0a2.87,2.87,0,0,0-1.19-2.27l-9.76-5.63c-.65-.38-1.18,0-1.18.9h0A2.86,2.86,0,0,0,568.32,295.56Z"/><path class="cls-25" d="M568.44,330.17l9.76,5.64c.65.37,1.19,0,1.19-.9h0a2.87,2.87,0,0,0-1.19-2.27L568.44,327c-.65-.38-1.18,0-1.18.9h0A2.83,2.83,0,0,0,568.44,330.17Z"/><path class="cls-12" d="M241.31,217.33C221.45,228.26,205,255.6,204.5,278.41s15.25,32.43,35.11,21.5,36.34-38.27,36.81-61.07S261.17,206.41,241.31,217.33Zm-.28,13.6c13.32-7.32,23.86-.86,23.54,14.43S253.21,279,239.89,286.31s-23.86.87-23.54-14.42S227.71,238.26,241,230.93Z"/><path class="cls-26" d="M241.31,217.33c12.16-6.68,22.75-5.66,29,1.36l-10,13c-4.23-4.58-11.27-5.2-19.34-.77-11,6.07-20.49,19.68-23.6,32.86L206,266.85C210.51,247,224.73,226.46,241.31,217.33Z"/><path class="cls-3" d="M266.82,271.16,258,267.32c4-7,6.45-14.83,6.59-22,.14-6.46-1.67-11.34-4.8-14.27L269,217.37c4.8,4.35,7.58,11.69,7.38,21.47C276.2,249.33,272.59,260.78,266.82,271.16Z"/><path class="cls-3" d="M272.29,311l20.43-11.8a8,8,0,0,0,3.33-6.35h0c0-2.44-1.5-3.57-3.33-2.51l-20.43,11.8a8,8,0,0,0-3.33,6.35h0C269,310.87,270.46,312,272.29,311Z"/><path class="cls-3" d="M235.65,332.4l20.43-11.8a8,8,0,0,0,3.33-6.35h0c0-2.43-1.5-3.56-3.33-2.51l-20.43,11.8a8,8,0,0,0-3.33,6.35h0C232.32,332.33,233.82,333.46,235.65,332.4Z"/><path class="cls-3" d="M199,353.86l20.43-11.8a8,8,0,0,0,3.32-6.35h0c0-2.44-1.49-3.57-3.32-2.52L199,345a8,8,0,0,0-3.33,6.35h0C195.68,353.78,197.18,354.91,199,353.86Z"/></g></g></g></svg>