<svg xmlns="http://www.w3.org/2000/svg" viewBox="0 0 36.61 53.57"><defs><style>.cls-1{fill:#4d4d4d;}</style></defs><g id="圖層_2" data-name="圖層 2"><g id="圖層_1-2" data-name="圖層 1"><path class="cls-1" d="M18.31,53.57A18.33,18.33,0,0,1,0,35.26V18.31a18.31,18.31,0,1,1,36.61,0v17A18.32,18.32,0,0,1,18.31,53.57ZM18.31,2A16.33,16.33,0,0,0,2,18.31v17a16.31,16.31,0,1,0,32.61,0V18.31A16.32,16.32,0,0,0,18.31,2Z"/><path class="cls-1" d="M18.31,43a2.5,2.5,0,0,1-2.5-2.5V28.47a2.5,2.5,0,0,1,5,0V40.53A2.5,2.5,0,0,1,18.31,43Z"/></g></g></svg>